<svg width="57" height="221" viewBox="0 0 57 221" fill="none" xmlns="http://www.w3.org/2000/svg">
<path d="M57 28.5C57 44.2401 44.2401 57 28.5 57C12.7599 57 3.8147e-06 44.2401 3.8147e-06 28.5C3.8147e-06 12.7599 12.7599 0 28.5 0C44.2401 0 57 12.7599 57 28.5Z" fill="#FB4A00"/>
<path d="M57 110.5C57 126.24 44.2401 139 28.5 139C12.7599 139 3.8147e-06 126.24 3.8147e-06 110.5C3.8147e-06 94.7599 12.7599 82 28.5 82C44.2401 82 57 94.7599 57 110.5Z" fill="#FB4A00"/>
<path d="M57 110.5C57 126.24 44.2401 139 28.5 139C12.7599 139 3.8147e-06 126.24 3.8147e-06 110.5C3.8147e-06 94.7599 12.7599 82 28.5 82C44.2401 82 57 94.7599 57 110.5Z" fill="#FB4A00"/>
<path d="M57 110.5C57 126.24 44.2401 139 28.5 139C12.7599 139 3.8147e-06 126.24 3.8147e-06 110.5C3.8147e-06 94.7599 12.7599 82 28.5 82C44.2401 82 57 94.7599 57 110.5Z" fill="#FB4A00"/>
<path d="M57 110.5C57 126.24 44.2401 139 28.5 139C12.7599 139 3.8147e-06 126.24 3.8147e-06 110.5C3.8147e-06 94.7599 12.7599 82 28.5 82C44.2401 82 57 94.7599 57 110.5Z" fill="#FB4A00"/>
<path d="M57 110.5C57 126.24 44.2401 139 28.5 139C12.7599 139 3.8147e-06 126.24 3.8147e-06 110.5C3.8147e-06 94.7599 12.7599 82 28.5 82C44.2401 82 57 94.7599 57 110.5Z" fill="#FB4A00"/>
<path d="M57 110.5C57 126.24 44.2401 139 28.5 139C12.7599 139 3.8147e-06 126.24 3.8147e-06 110.5C3.8147e-06 94.7599 12.7599 82 28.5 82C44.2401 82 57 94.7599 57 110.5Z" fill="#FB4A00"/>
<path d="M57 192.5C57 208.24 44.2401 221 28.5 221C12.7599 221 0 208.24 0 192.5C0 176.76 12.7599 164 28.5 164C44.2401 164 57 176.76 57 192.5Z" fill="#FB4A00"/>
<path d="M57 192.5C57 208.24 44.2401 221 28.5 221C12.7599 221 0 208.24 0 192.5C0 176.76 12.7599 164 28.5 164C44.2401 164 57 176.76 57 192.5Z" fill="#FB4A00"/>
<path d="M56.5 28.5C56.5 43.964 43.964 56.5 28.5 56.5C13.036 56.5 0.500004 43.964 0.500004 28.5C0.500004 13.036 13.036 0.5 28.5 0.5C43.964 0.5 56.5 13.036 56.5 28.5ZM56.5 110.5C56.5 125.964 43.964 138.5 28.5 138.5C13.036 138.5 0.500004 125.964 0.500004 110.5C0.500004 95.036 13.036 82.5 28.5 82.5C43.964 82.5 56.5 95.036 56.5 110.5ZM56.5 192.5C56.5 207.964 43.964 220.5 28.5 220.5C13.036 220.5 0.5 207.964 0.5 192.5C0.5 177.036 13.036 164.5 28.5 164.5C43.964 164.5 56.5 177.036 56.5 192.5Z" stroke="black" stroke-opacity="0.2"/>
</svg>
